<?xml version="1.0" standalone="no"?>
<!DOCTYPE svg PUBLIC "-//W3C//DTD SVG 20010904//EN"
 "http://www.w3.org/TR/2001/REC-SVG-20010904/DTD/svg10.dtd">
<svg version="1.0" xmlns="http://www.w3.org/2000/svg"
 width="250.000000pt" height="100.000000pt" viewBox="0 0 250.000000 100.000000"
 preserveAspectRatio="xMidYMid meet">

<g transform="translate(0.000000,100.000000) scale(0.100000,-0.100000)"
fill="#000000" stroke="none">
<path d="M787 803 c-10 -9 -9 -23 1 -23 5 0 9 7 9 15 0 17 -1 18 -10 8z"/>
<path d="M1417 794 c-8 -8 1 -24 14 -24 5 0 9 7 9 15 0 15 -12 20 -23 9z"/>
<path d="M226 783 c-11 -11 -6 -23 9 -23 8 0 15 4 15 9 0 13 -16 22 -24 14z"/>
<path d="M337 779 c-4 -9 -7 -49 -5 -90 l3 -74 139 -3 c95 -2 143 1 152 9 11
9 20 9 40 -2 48 -25 92 37 60 86 -30 45 -76 29 -104 -38 l-12 -28 -127 3 -128
3 -5 75 c-3 46 -9 69 -13 59z m371 -103 c6 -27 -12 -40 -37 -27 -18 10 -19 15
-10 32 12 24 42 21 47 -5z"/>
<path d="M855 760 c-7 -32 -14 -37 -32 -19 -23 23 -35 4 -14 -23 24 -30 20
-50 -15 -68 -44 -24 -30 -40 36 -40 60 0 60 0 60 29 0 17 -5 33 -10 36 -6 4
-7 28 -4 61 7 59 -9 78 -21 24z m13 -113 c3 -12 -4 -17 -22 -17 -28 0 -33 9
-14 28 15 15 32 10 36 -11z"/>
<path d="M935 780 c-4 -6 -8 -47 -8 -90 -2 -58 1 -80 11 -80 9 0 12 25 12 90
0 88 -2 100 -15 80z"/>
<path d="M1243 779 c-7 -8 -13 -42 -15 -74 l-3 -60 -62 -3 c-53 -3 -63 0 -72
17 -15 26 -4 50 25 57 29 8 32 24 3 24 -40 0 -59 -18 -59 -59 0 -68 6 -70 263
-70 l227 -1 0 60 c0 48 -3 60 -16 60 -12 0 -15 -9 -12 -42 l3 -43 -40 0 c-40
0 -40 0 -46 45 -5 47 -16 39 -21 -15 l-3 -30 -75 0 -75 0 -5 74 c-4 59 -7 71
-17 60z"/>
<path d="M2068 726 c-64 -17 -121 -57 -157 -110 -17 -25 -31 -47 -31 -50 0 -3
40 -6 89 -6 50 0 92 -4 96 -10 10 -16 -41 -105 -79 -138 -42 -37 -131 -66
-187 -60 -21 2 -35 1 -31 -3 12 -11 105 -39 155 -45 39 -6 47 -4 47 9 0 9 11
28 23 43 32 37 81 37 113 0 27 -31 39 -28 112 31 39 32 122 141 122 160 0 4
-61 7 -136 5 l-136 -3 6 27 c18 68 84 116 163 118 47 1 45 9 -7 24 -62 19
-114 21 -162 8z"/>
<path d="M1156 705 c-3 -9 0 -15 9 -15 9 0 12 6 9 15 -4 8 -7 15 -9 15 -2 0
-5 -7 -9 -15z"/>
<path d="M150 688 c-45 -49 -8 -138 58 -140 21 -1 41 7 57 22 21 20 25 33 25
83 0 52 -2 58 -15 47 -9 -8 -15 -29 -15 -56 0 -35 -5 -47 -25 -60 -23 -15 -27
-15 -50 0 -35 23 -38 71 -4 95 10 7 19 17 19 22 0 17 -29 9 -50 -13z"/>
<path d="M1496 571 c-4 -5 -2 -12 3 -15 5 -4 12 -2 15 3 4 5 2 12 -3 15 -5 4
-12 2 -15 -3z"/>
<path d="M162 380 c-25 -74 -28 -90 -15 -90 8 0 17 9 20 20 4 16 14 20 48 20
34 0 44 -4 48 -20 3 -11 12 -20 20 -20 13 0 10 16 -16 90 -27 76 -35 90 -54
90 -18 0 -26 -14 -51 -90z m78 -12 c0 -13 -8 -18 -26 -18 -25 0 -26 2 -19 37
4 21 10 42 13 48 7 11 31 -41 32 -67z"/>
<path d="M320 380 c0 -68 3 -90 13 -90 10 0 12 15 9 61 -7 90 12 95 33 10 13
-54 21 -71 34 -71 13 0 20 15 30 65 7 36 17 68 22 71 5 3 9 -27 9 -65 0 -41 4
-71 10 -71 6 0 10 37 10 91 0 88 -1 90 -22 87 -18 -2 -26 -13 -35 -53 -19 -76
-23 -83 -32 -65 -5 8 -14 39 -21 68 -10 45 -15 52 -36 52 -24 0 -24 -2 -24
-90z"/>
<path d="M527 463 c-4 -3 -7 -44 -7 -90 l0 -83 60 0 c46 0 60 3 60 14 0 11
-14 16 -47 18 -44 3 -48 5 -48 28 0 22 5 25 38 28 46 4 49 22 3 22 -22 0 -36
6 -40 16 -10 26 2 34 50 34 24 0 44 5 44 10 0 11 -103 14 -113 3z"/>
<path d="M660 380 c0 -73 3 -90 15 -90 12 0 15 13 15 60 0 33 3 60 8 60 4 0
22 -27 40 -60 20 -37 39 -60 50 -60 15 0 17 12 17 90 0 65 -3 90 -12 90 -9 0
-13 -18 -13 -54 0 -30 -3 -57 -8 -60 -4 -2 -23 22 -42 55 -21 37 -41 59 -52
59 -16 0 -18 -10 -18 -90z"/>
<path d="M887 464 c-4 -4 -7 -45 -7 -91 l0 -83 53 0 c31 0 61 6 75 16 21 15
30 53 15 68 -5 4 -8 26 -8 49 l0 42 -60 3 c-34 2 -64 0 -68 -4z m98 -39 c0
-16 -8 -21 -37 -23 -35 -3 -38 -1 -38 23 0 24 3 26 38 23 29 -2 37 -7 37 -23z
m0 -59 c30 -22 12 -46 -35 -46 -35 0 -40 3 -40 23 0 13 3 27 7 30 11 12 48 8
68 -7z"/>
<path d="M1105 453 c-9 -24 -55 -156 -55 -160 0 -2 6 -3 14 -3 8 0 18 9 21 20
5 16 15 20 47 20 31 0 41 -4 45 -20 6 -22 33 -28 32 -7 0 6 -13 46 -28 87 -21
55 -34 76 -48 78 -12 2 -23 -4 -28 -15z m49 -94 c-3 -5 -15 -7 -27 -5 -23 4
-24 16 -5 65 l10 26 14 -39 c8 -21 11 -42 8 -47z"/>
<path d="M1240 381 c0 -54 4 -91 10 -91 6 0 10 27 10 61 0 36 4 59 10 57 6 -2
25 -27 43 -57 38 -63 52 -72 61 -36 8 32 -4 155 -15 155 -4 0 -9 -28 -11 -62
l-3 -63 -36 60 c-19 33 -43 61 -52 63 -15 3 -17 -8 -17 -87z"/>
<path d="M1410 380 c0 -53 4 -90 10 -90 6 0 10 18 10 40 0 52 20 53 57 0 15
-22 36 -40 46 -40 20 0 20 -1 -27 68 l-29 43 33 34 c28 29 31 35 15 35 -11 0
-36 -17 -57 -37 l-38 -37 0 37 c0 20 -4 37 -10 37 -6 0 -10 -37 -10 -90z"/>
<path d="M2012 354 c-46 -32 -17 -114 40 -114 26 0 58 36 58 65 0 29 -32 65
-58 65 -10 0 -28 -7 -40 -16z"/>
</g>
</svg>
